<mxfile host="app.diagrams.net" modified="2024-04-28T09:39:01.014Z" agent="Mozilla/5.0 (Windows NT 10.0; Win64; x64) AppleWebKit/537.36 (KHTML, like Gecko) Chrome/124.0.0.0 Safari/537.36" etag="wPHxWzTlZ2zual7A8GCK" version="24.3.1" type="github">
  <diagram id="C5RBs43oDa-KdzZeNtuy" name="Page-1">
    <mxGraphModel dx="1050" dy="1691" grid="1" gridSize="10" guides="1" tooltips="1" connect="1" arrows="1" fold="1" page="1" pageScale="1" pageWidth="827" pageHeight="1169" math="0" shadow="0">
      <root>
        <mxCell id="WIyWlLk6GJQsqaUBKTNV-0" />
        <mxCell id="WIyWlLk6GJQsqaUBKTNV-1" parent="WIyWlLk6GJQsqaUBKTNV-0" />
        <mxCell id="WIyWlLk6GJQsqaUBKTNV-2" value="" style="rounded=0;html=1;jettySize=auto;orthogonalLoop=1;fontSize=11;endArrow=block;endFill=0;endSize=8;strokeWidth=1;shadow=0;labelBackgroundColor=none;edgeStyle=orthogonalEdgeStyle;" parent="WIyWlLk6GJQsqaUBKTNV-1" source="WIyWlLk6GJQsqaUBKTNV-3" edge="1">
          <mxGeometry relative="1" as="geometry">
            <mxPoint x="220" y="170" as="targetPoint" />
          </mxGeometry>
        </mxCell>
        <mxCell id="WIyWlLk6GJQsqaUBKTNV-3" value="Creazioe personaggi,&lt;div&gt;assegnazione casuale di ruoli&amp;nbsp;&lt;/div&gt;" style="rounded=1;whiteSpace=wrap;html=1;fontSize=12;glass=0;strokeWidth=1;shadow=0;" parent="WIyWlLk6GJQsqaUBKTNV-1" vertex="1">
          <mxGeometry x="130" y="80" width="180" height="50" as="geometry" />
        </mxCell>
        <mxCell id="xxCsGZQqJCWN9pZ-vb4U-0" value="" style="ellipse;whiteSpace=wrap;html=1;" vertex="1" parent="WIyWlLk6GJQsqaUBKTNV-1">
          <mxGeometry x="160" y="-40" width="120" height="50" as="geometry" />
        </mxCell>
        <mxCell id="xxCsGZQqJCWN9pZ-vb4U-1" value="Start" style="text;html=1;align=center;verticalAlign=middle;whiteSpace=wrap;rounded=0;" vertex="1" parent="WIyWlLk6GJQsqaUBKTNV-1">
          <mxGeometry x="190" y="-30" width="60" height="30" as="geometry" />
        </mxCell>
        <mxCell id="xxCsGZQqJCWN9pZ-vb4U-2" value="" style="endArrow=classic;html=1;rounded=0;exitX=0.5;exitY=1;exitDx=0;exitDy=0;" edge="1" parent="WIyWlLk6GJQsqaUBKTNV-1" source="xxCsGZQqJCWN9pZ-vb4U-0" target="WIyWlLk6GJQsqaUBKTNV-3">
          <mxGeometry width="50" height="50" relative="1" as="geometry">
            <mxPoint x="390" y="200" as="sourcePoint" />
            <mxPoint x="440" y="150" as="targetPoint" />
          </mxGeometry>
        </mxCell>
        <mxCell id="xxCsGZQqJCWN9pZ-vb4U-3" value="" style="rounded=1;whiteSpace=wrap;html=1;" vertex="1" parent="WIyWlLk6GJQsqaUBKTNV-1">
          <mxGeometry x="160" y="170" width="120" height="50" as="geometry" />
        </mxCell>
        <mxCell id="xxCsGZQqJCWN9pZ-vb4U-4" value="Stampa introduzione del gioco" style="text;html=1;align=center;verticalAlign=middle;whiteSpace=wrap;rounded=0;" vertex="1" parent="WIyWlLk6GJQsqaUBKTNV-1">
          <mxGeometry x="190" y="180" width="60" height="30" as="geometry" />
        </mxCell>
        <mxCell id="xxCsGZQqJCWN9pZ-vb4U-5" value="" style="rounded=1;whiteSpace=wrap;html=1;" vertex="1" parent="WIyWlLk6GJQsqaUBKTNV-1">
          <mxGeometry x="120" y="270" width="200" height="90" as="geometry" />
        </mxCell>
        <mxCell id="xxCsGZQqJCWN9pZ-vb4U-6" value="Battaglia&amp;nbsp;&lt;div&gt;giro1-&amp;gt;&lt;br&gt;&lt;div&gt;giocatore vs. avversario1&lt;/div&gt;&lt;/div&gt;&lt;div&gt;giro 2-&amp;gt;&lt;/div&gt;&lt;div&gt;&amp;nbsp;giocatore vs. avversario2&lt;/div&gt;" style="text;html=1;align=center;verticalAlign=middle;whiteSpace=wrap;rounded=0;" vertex="1" parent="WIyWlLk6GJQsqaUBKTNV-1">
          <mxGeometry x="145" y="285" width="150" height="50" as="geometry" />
        </mxCell>
        <mxCell id="xxCsGZQqJCWN9pZ-vb4U-7" value="" style="rounded=1;whiteSpace=wrap;html=1;" vertex="1" parent="WIyWlLk6GJQsqaUBKTNV-1">
          <mxGeometry x="135" y="400" width="170" height="100" as="geometry" />
        </mxCell>
        <mxCell id="xxCsGZQqJCWN9pZ-vb4U-8" value="Assegnazione/cambio ruoli attacante-attacato&lt;div&gt;&lt;br&gt;&lt;/div&gt;&lt;div&gt;Stampa caratteristiche del giocatore e l&#39;avversario1&lt;div&gt;&lt;br&gt;&lt;/div&gt;&lt;/div&gt;" style="text;html=1;align=center;verticalAlign=middle;whiteSpace=wrap;rounded=0;" vertex="1" parent="WIyWlLk6GJQsqaUBKTNV-1">
          <mxGeometry x="140" y="440" width="150" height="30" as="geometry" />
        </mxCell>
        <mxCell id="xxCsGZQqJCWN9pZ-vb4U-9" value="" style="rhombus;whiteSpace=wrap;html=1;" vertex="1" parent="WIyWlLk6GJQsqaUBKTNV-1">
          <mxGeometry x="380" y="404" width="215" height="95" as="geometry" />
        </mxCell>
        <mxCell id="xxCsGZQqJCWN9pZ-vb4U-10" value="Attacante attaca e riceve danno o bonus,&lt;div&gt;attacato riceve danno&lt;/div&gt;" style="rounded=1;whiteSpace=wrap;html=1;" vertex="1" parent="WIyWlLk6GJQsqaUBKTNV-1">
          <mxGeometry x="130" y="710" width="180" height="85" as="geometry" />
        </mxCell>
        <mxCell id="xxCsGZQqJCWN9pZ-vb4U-14" value="" style="rhombus;whiteSpace=wrap;html=1;" vertex="1" parent="WIyWlLk6GJQsqaUBKTNV-1">
          <mxGeometry x="115" y="560" width="210" height="80" as="geometry" />
        </mxCell>
        <mxCell id="xxCsGZQqJCWN9pZ-vb4U-16" value="Esito 50%/50% se riuscito a fuggire" style="text;html=1;align=center;verticalAlign=middle;whiteSpace=wrap;rounded=0;" vertex="1" parent="WIyWlLk6GJQsqaUBKTNV-1">
          <mxGeometry x="170" y="585" width="105" height="30" as="geometry" />
        </mxCell>
        <mxCell id="xxCsGZQqJCWN9pZ-vb4U-36" value="" style="edgeStyle=orthogonalEdgeStyle;rounded=0;orthogonalLoop=1;jettySize=auto;html=1;" edge="1" parent="WIyWlLk6GJQsqaUBKTNV-1" source="xxCsGZQqJCWN9pZ-vb4U-17" target="xxCsGZQqJCWN9pZ-vb4U-22">
          <mxGeometry relative="1" as="geometry">
            <Array as="points">
              <mxPoint x="220" y="940" />
              <mxPoint x="220" y="940" />
            </Array>
          </mxGeometry>
        </mxCell>
        <mxCell id="xxCsGZQqJCWN9pZ-vb4U-17" value="" style="rhombus;whiteSpace=wrap;html=1;" vertex="1" parent="WIyWlLk6GJQsqaUBKTNV-1">
          <mxGeometry x="100" y="940" width="240" height="90" as="geometry" />
        </mxCell>
        <mxCell id="xxCsGZQqJCWN9pZ-vb4U-18" value="Esito dell&#39;attaco" style="text;html=1;align=center;verticalAlign=middle;whiteSpace=wrap;rounded=0;" vertex="1" parent="WIyWlLk6GJQsqaUBKTNV-1">
          <mxGeometry x="190" y="950" width="60" height="70" as="geometry" />
        </mxCell>
        <mxCell id="xxCsGZQqJCWN9pZ-vb4U-19" value="" style="rounded=1;whiteSpace=wrap;html=1;" vertex="1" parent="WIyWlLk6GJQsqaUBKTNV-1">
          <mxGeometry x="160" y="1100" width="120" height="60" as="geometry" />
        </mxCell>
        <mxCell id="xxCsGZQqJCWN9pZ-vb4U-20" value="Stampa risultati della battaglia" style="text;html=1;align=center;verticalAlign=middle;whiteSpace=wrap;rounded=0;" vertex="1" parent="WIyWlLk6GJQsqaUBKTNV-1">
          <mxGeometry x="190" y="1115" width="60" height="30" as="geometry" />
        </mxCell>
        <mxCell id="xxCsGZQqJCWN9pZ-vb4U-21" value="" style="rounded=1;whiteSpace=wrap;html=1;" vertex="1" parent="WIyWlLk6GJQsqaUBKTNV-1">
          <mxGeometry x="160" y="850" width="120" height="60" as="geometry" />
        </mxCell>
        <mxCell id="xxCsGZQqJCWN9pZ-vb4U-22" value="Stampa risultati dell&#39;attaco" style="text;html=1;align=center;verticalAlign=middle;whiteSpace=wrap;rounded=0;" vertex="1" parent="WIyWlLk6GJQsqaUBKTNV-1">
          <mxGeometry x="190" y="860" width="60" height="30" as="geometry" />
        </mxCell>
        <mxCell id="xxCsGZQqJCWN9pZ-vb4U-23" value="" style="ellipse;whiteSpace=wrap;html=1;" vertex="1" parent="WIyWlLk6GJQsqaUBKTNV-1">
          <mxGeometry x="160" y="1340" width="120" height="50" as="geometry" />
        </mxCell>
        <mxCell id="xxCsGZQqJCWN9pZ-vb4U-24" value="Fine" style="text;html=1;align=center;verticalAlign=middle;whiteSpace=wrap;rounded=0;" vertex="1" parent="WIyWlLk6GJQsqaUBKTNV-1">
          <mxGeometry x="190" y="1350" width="60" height="30" as="geometry" />
        </mxCell>
        <mxCell id="xxCsGZQqJCWN9pZ-vb4U-25" value="" style="endArrow=classic;html=1;rounded=0;exitX=1;exitY=0.5;exitDx=0;exitDy=0;entryX=0.998;entryY=0.593;entryDx=0;entryDy=0;entryPerimeter=0;" edge="1" parent="WIyWlLk6GJQsqaUBKTNV-1" source="xxCsGZQqJCWN9pZ-vb4U-3" target="xxCsGZQqJCWN9pZ-vb4U-5">
          <mxGeometry width="50" height="50" relative="1" as="geometry">
            <mxPoint x="390" y="400" as="sourcePoint" />
            <mxPoint x="440" y="350" as="targetPoint" />
            <Array as="points">
              <mxPoint x="380" y="195" />
              <mxPoint x="380" y="323" />
            </Array>
          </mxGeometry>
        </mxCell>
        <mxCell id="xxCsGZQqJCWN9pZ-vb4U-26" value="" style="endArrow=classic;html=1;rounded=0;exitX=0.5;exitY=1;exitDx=0;exitDy=0;entryX=0.5;entryY=0;entryDx=0;entryDy=0;" edge="1" parent="WIyWlLk6GJQsqaUBKTNV-1" source="xxCsGZQqJCWN9pZ-vb4U-5" target="xxCsGZQqJCWN9pZ-vb4U-7">
          <mxGeometry width="50" height="50" relative="1" as="geometry">
            <mxPoint x="390" y="400" as="sourcePoint" />
            <mxPoint x="440" y="350" as="targetPoint" />
          </mxGeometry>
        </mxCell>
        <mxCell id="xxCsGZQqJCWN9pZ-vb4U-32" value="" style="endArrow=classic;html=1;rounded=0;exitX=0.5;exitY=1;exitDx=0;exitDy=0;entryX=0.5;entryY=0;entryDx=0;entryDy=0;" edge="1" parent="WIyWlLk6GJQsqaUBKTNV-1" source="xxCsGZQqJCWN9pZ-vb4U-10" target="xxCsGZQqJCWN9pZ-vb4U-21">
          <mxGeometry width="50" height="50" relative="1" as="geometry">
            <mxPoint x="390" y="800" as="sourcePoint" />
            <mxPoint x="440" y="750" as="targetPoint" />
          </mxGeometry>
        </mxCell>
        <mxCell id="xxCsGZQqJCWN9pZ-vb4U-33" value="" style="endArrow=classic;html=1;rounded=0;exitX=0.5;exitY=1;exitDx=0;exitDy=0;" edge="1" parent="WIyWlLk6GJQsqaUBKTNV-1" source="xxCsGZQqJCWN9pZ-vb4U-21">
          <mxGeometry width="50" height="50" relative="1" as="geometry">
            <mxPoint x="390" y="900" as="sourcePoint" />
            <mxPoint x="220" y="940" as="targetPoint" />
          </mxGeometry>
        </mxCell>
        <mxCell id="xxCsGZQqJCWN9pZ-vb4U-34" value="" style="endArrow=classic;html=1;rounded=0;exitX=0.5;exitY=1;exitDx=0;exitDy=0;entryX=0.5;entryY=0;entryDx=0;entryDy=0;" edge="1" parent="WIyWlLk6GJQsqaUBKTNV-1" source="xxCsGZQqJCWN9pZ-vb4U-17" target="xxCsGZQqJCWN9pZ-vb4U-19">
          <mxGeometry width="50" height="50" relative="1" as="geometry">
            <mxPoint x="390" y="900" as="sourcePoint" />
            <mxPoint x="440" y="850" as="targetPoint" />
          </mxGeometry>
        </mxCell>
        <mxCell id="xxCsGZQqJCWN9pZ-vb4U-37" value="" style="endArrow=classic;html=1;rounded=0;entryX=0.5;entryY=0;entryDx=0;entryDy=0;exitX=0.5;exitY=1;exitDx=0;exitDy=0;" edge="1" parent="WIyWlLk6GJQsqaUBKTNV-1" source="xxCsGZQqJCWN9pZ-vb4U-53" target="xxCsGZQqJCWN9pZ-vb4U-23">
          <mxGeometry width="50" height="50" relative="1" as="geometry">
            <mxPoint x="220" y="1280" as="sourcePoint" />
            <mxPoint x="440" y="950" as="targetPoint" />
          </mxGeometry>
        </mxCell>
        <mxCell id="xxCsGZQqJCWN9pZ-vb4U-38" value="Giro 1" style="text;html=1;align=center;verticalAlign=middle;whiteSpace=wrap;rounded=0;rotation=0;" vertex="1" parent="WIyWlLk6GJQsqaUBKTNV-1">
          <mxGeometry x="295" y="170" width="60" height="30" as="geometry" />
        </mxCell>
        <mxCell id="xxCsGZQqJCWN9pZ-vb4U-41" value="sfuggito" style="text;html=1;align=center;verticalAlign=middle;whiteSpace=wrap;rounded=0;rotation=0;" vertex="1" parent="WIyWlLk6GJQsqaUBKTNV-1">
          <mxGeometry x="50" y="570" width="60" height="30" as="geometry" />
        </mxCell>
        <mxCell id="xxCsGZQqJCWN9pZ-vb4U-43" value="non sfuggito" style="text;html=1;align=center;verticalAlign=middle;whiteSpace=wrap;rounded=0;rotation=270;" vertex="1" parent="WIyWlLk6GJQsqaUBKTNV-1">
          <mxGeometry x="150" y="660" width="100" height="30" as="geometry" />
        </mxCell>
        <mxCell id="xxCsGZQqJCWN9pZ-vb4U-44" value="tenta di sfuggire" style="text;html=1;align=center;verticalAlign=middle;whiteSpace=wrap;rounded=0;" vertex="1" parent="WIyWlLk6GJQsqaUBKTNV-1">
          <mxGeometry x="350" y="570" width="100" height="30" as="geometry" />
        </mxCell>
        <mxCell id="xxCsGZQqJCWN9pZ-vb4U-45" value="Combatte" style="text;html=1;align=center;verticalAlign=middle;whiteSpace=wrap;rounded=0;rotation=-90;" vertex="1" parent="WIyWlLk6GJQsqaUBKTNV-1">
          <mxGeometry x="550" y="490" width="60" height="30" as="geometry" />
        </mxCell>
        <mxCell id="xxCsGZQqJCWN9pZ-vb4U-46" value="Avversario sconfitto" style="text;html=1;align=center;verticalAlign=middle;whiteSpace=wrap;rounded=0;rotation=0;" vertex="1" parent="WIyWlLk6GJQsqaUBKTNV-1">
          <mxGeometry x="40" y="950" width="60" height="30" as="geometry" />
        </mxCell>
        <mxCell id="xxCsGZQqJCWN9pZ-vb4U-47" value="" style="endArrow=classic;html=1;rounded=0;exitX=0;exitY=0.5;exitDx=0;exitDy=0;entryX=0;entryY=0.5;entryDx=0;entryDy=0;" edge="1" parent="WIyWlLk6GJQsqaUBKTNV-1" source="xxCsGZQqJCWN9pZ-vb4U-17" target="xxCsGZQqJCWN9pZ-vb4U-5">
          <mxGeometry width="50" height="50" relative="1" as="geometry">
            <mxPoint x="390" y="1100" as="sourcePoint" />
            <mxPoint x="80" y="630" as="targetPoint" />
            <Array as="points">
              <mxPoint x="40" y="985" />
              <mxPoint x="40" y="650" />
              <mxPoint x="40" y="315" />
            </Array>
          </mxGeometry>
        </mxCell>
        <mxCell id="xxCsGZQqJCWN9pZ-vb4U-48" value="Giro2" style="text;html=1;align=center;verticalAlign=middle;whiteSpace=wrap;rounded=0;" vertex="1" parent="WIyWlLk6GJQsqaUBKTNV-1">
          <mxGeometry x="40" y="285" width="60" height="30" as="geometry" />
        </mxCell>
        <mxCell id="xxCsGZQqJCWN9pZ-vb4U-50" value="Giocatore sconfitto" style="text;html=1;align=center;verticalAlign=middle;whiteSpace=wrap;rounded=0;rotation=-90;" vertex="1" parent="WIyWlLk6GJQsqaUBKTNV-1">
          <mxGeometry x="170" y="1050" width="60" height="30" as="geometry" />
        </mxCell>
        <mxCell id="xxCsGZQqJCWN9pZ-vb4U-53" value="" style="rounded=1;whiteSpace=wrap;html=1;" vertex="1" parent="WIyWlLk6GJQsqaUBKTNV-1">
          <mxGeometry x="160" y="1205" width="120" height="60" as="geometry" />
        </mxCell>
        <mxCell id="xxCsGZQqJCWN9pZ-vb4U-54" value="Stampa risultati del gioco" style="text;html=1;align=center;verticalAlign=middle;whiteSpace=wrap;rounded=0;" vertex="1" parent="WIyWlLk6GJQsqaUBKTNV-1">
          <mxGeometry x="190" y="1220" width="60" height="30" as="geometry" />
        </mxCell>
        <mxCell id="xxCsGZQqJCWN9pZ-vb4U-58" value="" style="endArrow=classic;html=1;rounded=0;exitX=0.5;exitY=1;exitDx=0;exitDy=0;entryX=0.5;entryY=0;entryDx=0;entryDy=0;" edge="1" parent="WIyWlLk6GJQsqaUBKTNV-1" source="xxCsGZQqJCWN9pZ-vb4U-19" target="xxCsGZQqJCWN9pZ-vb4U-53">
          <mxGeometry width="50" height="50" relative="1" as="geometry">
            <mxPoint x="390" y="1200" as="sourcePoint" />
            <mxPoint x="440" y="1150" as="targetPoint" />
          </mxGeometry>
        </mxCell>
        <mxCell id="xxCsGZQqJCWN9pZ-vb4U-61" value="" style="endArrow=none;html=1;rounded=0;exitX=0;exitY=0.5;exitDx=0;exitDy=0;" edge="1" parent="WIyWlLk6GJQsqaUBKTNV-1" source="xxCsGZQqJCWN9pZ-vb4U-14">
          <mxGeometry width="50" height="50" relative="1" as="geometry">
            <mxPoint x="390" y="510" as="sourcePoint" />
            <mxPoint x="40" y="600" as="targetPoint" />
          </mxGeometry>
        </mxCell>
        <mxCell id="xxCsGZQqJCWN9pZ-vb4U-62" value="" style="endArrow=classic;html=1;rounded=0;exitX=0.5;exitY=1;exitDx=0;exitDy=0;entryX=0.5;entryY=0;entryDx=0;entryDy=0;" edge="1" parent="WIyWlLk6GJQsqaUBKTNV-1" source="xxCsGZQqJCWN9pZ-vb4U-7" target="xxCsGZQqJCWN9pZ-vb4U-14">
          <mxGeometry width="50" height="50" relative="1" as="geometry">
            <mxPoint x="390" y="510" as="sourcePoint" />
            <mxPoint x="440" y="460" as="targetPoint" />
          </mxGeometry>
        </mxCell>
        <mxCell id="xxCsGZQqJCWN9pZ-vb4U-63" value="Giocatore combatte o tenta di sfuggire" style="text;html=1;align=center;verticalAlign=middle;whiteSpace=wrap;rounded=0;" vertex="1" parent="WIyWlLk6GJQsqaUBKTNV-1">
          <mxGeometry x="427.5" y="435" width="120" height="30" as="geometry" />
        </mxCell>
        <mxCell id="xxCsGZQqJCWN9pZ-vb4U-66" value="" style="endArrow=classic;html=1;rounded=0;exitX=1;exitY=0.5;exitDx=0;exitDy=0;" edge="1" parent="WIyWlLk6GJQsqaUBKTNV-1" source="xxCsGZQqJCWN9pZ-vb4U-7" target="xxCsGZQqJCWN9pZ-vb4U-9">
          <mxGeometry width="50" height="50" relative="1" as="geometry">
            <mxPoint x="340" y="520" as="sourcePoint" />
            <mxPoint x="440" y="560" as="targetPoint" />
          </mxGeometry>
        </mxCell>
        <mxCell id="xxCsGZQqJCWN9pZ-vb4U-67" value="" style="endArrow=classic;html=1;rounded=0;exitX=0.5;exitY=1;exitDx=0;exitDy=0;entryX=1;entryY=0.5;entryDx=0;entryDy=0;" edge="1" parent="WIyWlLk6GJQsqaUBKTNV-1" source="xxCsGZQqJCWN9pZ-vb4U-9" target="xxCsGZQqJCWN9pZ-vb4U-14">
          <mxGeometry width="50" height="50" relative="1" as="geometry">
            <mxPoint x="390" y="610" as="sourcePoint" />
            <mxPoint x="440" y="560" as="targetPoint" />
            <Array as="points">
              <mxPoint x="488" y="600" />
            </Array>
          </mxGeometry>
        </mxCell>
        <mxCell id="xxCsGZQqJCWN9pZ-vb4U-68" value="" style="endArrow=classic;html=1;rounded=0;exitX=0.5;exitY=1;exitDx=0;exitDy=0;entryX=0.5;entryY=0;entryDx=0;entryDy=0;" edge="1" parent="WIyWlLk6GJQsqaUBKTNV-1" source="xxCsGZQqJCWN9pZ-vb4U-14" target="xxCsGZQqJCWN9pZ-vb4U-10">
          <mxGeometry width="50" height="50" relative="1" as="geometry">
            <mxPoint x="390" y="610" as="sourcePoint" />
            <mxPoint x="440" y="560" as="targetPoint" />
          </mxGeometry>
        </mxCell>
        <mxCell id="xxCsGZQqJCWN9pZ-vb4U-69" value="" style="endArrow=classic;html=1;rounded=0;exitX=1;exitY=0.5;exitDx=0;exitDy=0;entryX=1;entryY=0.5;entryDx=0;entryDy=0;" edge="1" parent="WIyWlLk6GJQsqaUBKTNV-1" source="xxCsGZQqJCWN9pZ-vb4U-9" target="xxCsGZQqJCWN9pZ-vb4U-10">
          <mxGeometry width="50" height="50" relative="1" as="geometry">
            <mxPoint x="390" y="610" as="sourcePoint" />
            <mxPoint x="440" y="560" as="targetPoint" />
            <Array as="points">
              <mxPoint x="595" y="753" />
            </Array>
          </mxGeometry>
        </mxCell>
        <mxCell id="xxCsGZQqJCWN9pZ-vb4U-70" value="" style="endArrow=classic;html=1;rounded=0;exitX=1;exitY=0.5;exitDx=0;exitDy=0;" edge="1" parent="WIyWlLk6GJQsqaUBKTNV-1" source="xxCsGZQqJCWN9pZ-vb4U-17">
          <mxGeometry width="50" height="50" relative="1" as="geometry">
            <mxPoint x="390" y="810" as="sourcePoint" />
            <mxPoint x="380" y="250" as="targetPoint" />
            <Array as="points">
              <mxPoint x="720" y="985" />
              <mxPoint x="720" y="250" />
            </Array>
          </mxGeometry>
        </mxCell>
      </root>
    </mxGraphModel>
  </diagram>
</mxfile>
